AmstelvarA2-Roman_opsz8_wght1000_wdth125.ufo
<glyph name="exclam" format="2">
  <advance width="871"/>
  <unicode hex="0021"/>
  <outline>
    <contour>
      <point x="183" y="229" type="qcurve" smooth="yes"/>
      <point x="183" y="331"/>
      <point x="325" y="482"/>
      <point x="435" y="482" type="qcurve" smooth="yes"/>
      <point x="546" y="482"/>
      <point x="688" y="331"/>
      <point x="688" y="229" type="qcurve" smooth="yes"/>
      <point x="688" y="128"/>
      <point x="546" y="-22"/>
      <point x="435" y="-22" type="qcurve" smooth="yes"/>
      <point x="325" y="-22"/>
      <point x="183" y="128"/>
    </contour>
    <contour>
      <point x="185" y="1307" type="line" smooth="yes"/>
      <point x="175" y="1375"/>
      <point x="284" y="1546"/>
      <point x="430" y="1547" type="qcurve" smooth="yes"/>
      <point x="576" y="1548"/>
      <point x="696" y="1377"/>
      <point x="685" y="1308" type="qcurve" smooth="yes"/>
      <point x="658" y="1108" type="line"/>
      <point x="536" y="800" type="line"/>
      <point x="500" y="569" type="line"/>
      <point x="369" y="569" type="line"/>
      <point x="333" y="800" type="line"/>
      <point x="213" y="1108" type="line"/>
    </contour>
  </outline>
</glyph>
<glyph name="ampersand" format="2">
  <advance width="2149"/>
  <unicode hex="0026"/>
  <outline>
    <contour>
      <point x="736" y="-28" type="qcurve" smooth="yes"/>
      <point x="360" y="-28"/>
      <point x="65" y="232"/>
      <point x="77" y="376" type="qcurve" smooth="yes"/>
      <point x="89" y="522"/>
      <point x="379" y="756"/>
      <point x="852" y="885" type="qcurve"/>
      <point x="1022" y="929"/>
      <point x="1233" y="1090"/>
      <point x="1233" y="1208" type="qcurve" smooth="yes"/>
      <point x="1233" y="1288"/>
      <point x="1120" y="1391"/>
      <point x="1011" y="1391" type="qcurve" smooth="yes"/>
      <point x="905" y="1391"/>
      <point x="772" y="1283"/>
      <point x="772" y="1196" type="qcurve" smooth="yes"/>
      <point x="772" y="1104"/>
      <point x="894" y="954"/>
      <point x="1032" y="917" type="qcurve"/>
      <point x="1562" y="310" type="line" smooth="yes"/>
      <point x="1629" y="233"/>
      <point x="1744" y="135"/>
      <point x="1830" y="135" type="qcurve" smooth="yes"/>
      <point x="1900" y="135"/>
      <point x="1975" y="172"/>
      <point x="2012" y="207" type="qcurve"/>
      <point x="2115" y="113" type="line"/>
      <point x="2066" y="44"/>
      <point x="1928" y="-44"/>
      <point x="1699" y="-44" type="qcurve" smooth="yes"/>
      <point x="1451" y="-44"/>
      <point x="1170" y="133"/>
      <point x="1054" y="260" type="qcurve" smooth="yes"/>
      <point x="640" y="749" type="line"/>
      <point x="485" y="803"/>
      <point x="309" y="1009"/>
      <point x="317" y="1150" type="qcurve" smooth="yes"/>
      <point x="325" y="1300"/>
      <point x="650" y="1516"/>
      <point x="889" y="1516" type="qcurve" smooth="yes"/>
      <point x="1181" y="1516"/>
      <point x="1410" y="1343"/>
      <point x="1410" y="1196" type="qcurve" smooth="yes"/>
      <point x="1410" y="1061"/>
      <point x="1186" y="846"/>
      <point x="1016" y="806" type="qcurve"/>
      <point x="794" y="700"/>
      <point x="600" y="516"/>
      <point x="595" y="403" type="qcurve" smooth="yes"/>
      <point x="588" y="277"/>
      <point x="783" y="133"/>
      <point x="973" y="133" type="qcurve" smooth="yes"/>
      <point x="1275" y="133"/>
      <point x="1805" y="576"/>
      <point x="1961" y="873" type="qcurve"/>
      <point x="2119" y="858" type="line"/>
      <point x="1945" y="489"/>
      <point x="1305" y="-28"/>
    </contour>
    <contour>
      <point x="1413" y="763" type="line"/>
      <point x="1456" y="876"/>
      <point x="1599" y="1030"/>
      <point x="1667" y="1030" type="qcurve" smooth="yes"/>
      <point x="1717" y="1030"/>
      <point x="1861" y="972"/>
      <point x="1902" y="972" type="qcurve" smooth="yes"/>
      <point x="1934" y="972"/>
      <point x="1976" y="977"/>
      <point x="2007" y="997" type="qcurve"/>
      <point x="2145" y="860" type="line"/>
      <point x="2068" y="746"/>
      <point x="1982" y="696"/>
      <point x="1931" y="696" type="qcurve" smooth="yes"/>
      <point x="1894" y="696"/>
      <point x="1763" y="780"/>
      <point x="1719" y="780" type="qcurve" smooth="yes"/>
      <point x="1651" y="780"/>
      <point x="1545" y="738"/>
      <point x="1492" y="684" type="qcurve"/>
    </contour>
  </outline>
</glyph>
<glyph name="asterisk" format="2">
  <advance width="934"/>
  <unicode hex="002A"/>
  <outline>
    <contour>
      <point x="468" y="664" type="qcurve" smooth="yes"/>
      <point x="388" y="664"/>
      <point x="322" y="774"/>
      <point x="342" y="842" type="qcurve" smooth="yes"/>
      <point x="445" y="1063" type="line"/>
      <point x="441" y="1067" type="line"/>
      <point x="297" y="865" type="line" smooth="yes"/>
      <point x="264" y="818"/>
      <point x="121" y="813"/>
      <point x="79" y="887" type="qcurve" smooth="yes"/>
      <point x="36" y="960"/>
      <point x="112" y="1080"/>
      <point x="170" y="1084" type="qcurve" smooth="yes"/>
      <point x="415" y="1106" type="line"/>
      <point x="413" y="1114" type="line"/>
      <point x="173" y="1137" type="line" smooth="yes"/>
      <point x="115" y="1141"/>
      <point x="38" y="1261"/>
      <point x="81" y="1335" type="qcurve" smooth="yes"/>
      <point x="123" y="1408"/>
      <point x="259" y="1397"/>
      <point x="300" y="1355" type="qcurve" smooth="yes"/>
      <point x="438" y="1155" type="line"/>
      <point x="443" y="1159" type="line"/>
      <point x="340" y="1393" type="line" smooth="yes"/>
      <point x="311" y="1456"/>
      <point x="390" y="1558"/>
      <point x="468" y="1558" type="qcurve" smooth="yes"/>
      <point x="549" y="1558"/>
      <point x="617" y="1455"/>
      <point x="596" y="1393" type="qcurve" smooth="yes"/>
      <point x="492" y="1159" type="line"/>
      <point x="497" y="1155" type="line"/>
      <point x="642" y="1355" type="line" smooth="yes"/>
      <point x="675" y="1402"/>
      <point x="817" y="1407"/>
      <point x="859" y="1333" type="qcurve" smooth="yes"/>
      <point x="902" y="1261"/>
      <point x="828" y="1140"/>
      <point x="768" y="1136" type="qcurve" smooth="yes"/>
      <point x="522" y="1116" type="line"/>
      <point x="523" y="1108" type="line"/>
      <point x="762" y="1078" type="line" smooth="yes"/>
      <point x="820" y="1073"/>
      <point x="896" y="955"/>
      <point x="853" y="880" type="qcurve" smooth="yes"/>
      <point x="812" y="807"/>
      <point x="668" y="811"/>
      <point x="636" y="859" type="qcurve" smooth="yes"/>
      <point x="498" y="1067" type="line"/>
      <point x="494" y="1063" type="line"/>
      <point x="595" y="842" type="line" smooth="yes"/>
      <point x="625" y="779"/>
      <point x="553" y="664"/>
    </contour>
  </outline>
</glyph>
<glyph name="five" format="2">
  <advance width="1448"/>
  <unicode hex="0035"/>
  <outline>
    <contour>
      <point x="20" y="143" type="qcurve"/>
      <point x="94" y="292" type="line"/>
      <point x="157" y="248"/>
      <point x="351" y="169"/>
      <point x="498" y="169" type="qcurve" smooth="yes"/>
      <point x="647" y="169"/>
      <point x="854" y="308"/>
      <point x="854" y="458" type="qcurve" smooth="yes"/>
      <point x="854" y="608"/>
      <point x="542" y="766"/>
      <point x="287" y="766" type="qcurve" smooth="yes"/>
      <point x="175" y="766" type="line"/>
      <point x="132" y="860" type="line"/>
      <point x="200" y="1484" type="line"/>
      <point x="227" y="1517" type="line"/>
      <point x="1258" y="1517" type="line"/>
      <point x="1207" y="1049" type="line"/>
      <point x="323" y="1049" type="line"/>
      <point x="314" y="1038" type="line"/>
      <point x="302" y="914" type="line"/>
      <point x="484" y="956" type="line"/>
      <point x="942" y="956"/>
      <point x="1370" y="728"/>
      <point x="1370" y="503" type="qcurve" smooth="yes"/>
      <point x="1370" y="258"/>
      <point x="930" y="-27"/>
      <point x="611" y="-27" type="qcurve" smooth="yes"/>
      <point x="347" y="-27"/>
      <point x="93" y="68"/>
    </contour>
  </outline>
</glyph>
<glyph name="greater" format="2">
  <advance width="1158"/>
  <unicode hex="003E"/>
  <outline>
    <contour>
      <point x="231" y="317" type="qcurve" smooth="yes"/>
      <point x="295" y="421"/>
      <point x="473" y="631"/>
      <point x="475" y="631" type="qcurve"/>
      <point x="473" y="631"/>
      <point x="296" y="833"/>
      <point x="234" y="933" type="qcurve" smooth="yes"/>
      <point x="175" y="983"/>
      <point x="254" y="1119"/>
      <point x="339" y="1058" type="qcurve" smooth="yes"/>
      <point x="399" y="1017"/>
      <point x="973" y="639"/>
      <point x="975" y="635" type="qcurve"/>
      <point x="972" y="631"/>
      <point x="400" y="235"/>
      <point x="339" y="194" type="qcurve" smooth="yes"/>
      <point x="256" y="135"/>
      <point x="172" y="267"/>
    </contour>
  </outline>
</glyph>
<glyph name="question" format="2">
  <advance width="1456"/>
  <unicode hex="003F"/>
  <outline>
    <contour>
      <point x="320" y="229" type="qcurve" smooth="yes"/>
      <point x="320" y="331"/>
      <point x="462" y="482"/>
      <point x="573" y="482" type="qcurve" smooth="yes"/>
      <point x="684" y="482"/>
      <point x="826" y="331"/>
      <point x="826" y="229" type="qcurve" smooth="yes"/>
      <point x="826" y="129"/>
      <point x="684" y="-22"/>
      <point x="573" y="-22" type="qcurve" smooth="yes"/>
      <point x="462" y="-22"/>
      <point x="320" y="129"/>
    </contour>
    <contour>
      <point x="51" y="1165" type="qcurve" smooth="yes"/>
      <point x="51" y="1318"/>
      <point x="325" y="1540"/>
      <point x="665" y="1540" type="qcurve" smooth="yes"/>
      <point x="1061" y="1540"/>
      <point x="1393" y="1348"/>
      <point x="1393" y="1163" type="qcurve" smooth="yes"/>
      <point x="1393" y="970"/>
      <point x="1107" y="772"/>
      <point x="984" y="742" type="qcurve" smooth="yes"/>
      <point x="886" y="718"/>
      <point x="643" y="656"/>
      <point x="643" y="603" type="qcurve" smooth="yes"/>
      <point x="643" y="547" type="line"/>
      <point x="486" y="547" type="line"/>
      <point x="478" y="583" type="line" smooth="yes"/>
      <point x="462" y="654"/>
      <point x="560" y="794"/>
      <point x="686" y="856" type="qcurve" smooth="yes"/>
      <point x="790" y="905"/>
      <point x="951" y="1033"/>
      <point x="951" y="1151" type="qcurve" smooth="yes"/>
      <point x="951" y="1263"/>
      <point x="777" y="1397"/>
      <point x="636" y="1397" type="qcurve" smooth="yes"/>
      <point x="503" y="1397"/>
      <point x="356" y="1317"/>
      <point x="356" y="1260" type="qcurve" smooth="yes"/>
      <point x="356" y="1216"/>
      <point x="506" y="1131"/>
      <point x="508" y="1056" type="qcurve" smooth="yes"/>
      <point x="512" y="995"/>
      <point x="407" y="897"/>
      <point x="305" y="897" type="qcurve" smooth="yes"/>
      <point x="193" y="897"/>
      <point x="51" y="1039"/>
    </contour>
  </outline>
</glyph>
<glyph name="C" format="2">
  <advance width="1970"/>
  <unicode hex="0043"/>
  <anchor x="1094" y="0" name="bottom"/>
  <anchor x="1095" y="1500" name="top"/>
  <outline>
    <contour>
      <point x="98" y="706" type="qcurve" smooth="yes"/>
      <point x="98" y="1051"/>
      <point x="618" y="1528"/>
      <point x="1057" y="1528" type="qcurve" smooth="yes"/>
      <point x="1226" y="1528"/>
      <point x="1446" y="1468"/>
      <point x="1512" y="1422" type="qcurve"/>
      <point x="1609" y="1517" type="line"/>
      <point x="1847" y="1517" type="line"/>
      <point x="1847" y="921" type="line"/>
      <point x="1587" y="921" type="line"/>
      <point x="1548" y="1123" type="line" smooth="yes"/>
      <point x="1524" y="1224"/>
      <point x="1366" y="1324"/>
      <point x="1220" y="1324" type="qcurve" smooth="yes"/>
      <point x="1004" y="1324"/>
      <point x="661" y="1018"/>
      <point x="663" y="740" type="qcurve" smooth="yes"/>
      <point x="665" y="473"/>
      <point x="1000" y="179"/>
      <point x="1274" y="179" type="qcurve" smooth="yes"/>
      <point x="1469" y="179"/>
      <point x="1717" y="297"/>
      <point x="1790" y="391" type="qcurve"/>
      <point x="1920" y="260" type="line"/>
      <point x="1780" y="115"/>
      <point x="1362" y="-38"/>
      <point x="1115" y="-38" type="qcurve" smooth="yes"/>
      <point x="646" y="-38"/>
      <point x="98" y="367"/>
    </contour>
  </outline>
</glyph>
<glyph name="J" format="2">
  <advance width="1177"/>
  <unicode hex="004A"/>
  <anchor x="528" y="-208" name="bottom"/>
  <anchor x="611" y="1500" name="top"/>
  <outline>
    <contour>
      <point x="55" y="-204" type="qcurve"/>
      <point x="55" y="-4" type="line"/>
      <point x="85" y="-5"/>
      <point x="151" y="-3"/>
      <point x="193" y="2" type="qcurve" smooth="yes"/>
      <point x="274" y="12"/>
      <point x="349" y="93"/>
      <point x="349" y="187" type="qcurve" smooth="yes"/>
      <point x="347" y="834" type="line"/>
      <point x="345" y="1272" type="line"/>
      <point x="132" y="1306" type="line"/>
      <point x="132" y="1500" type="line"/>
      <point x="1087" y="1500" type="line"/>
      <point x="1087" y="1304" type="line"/>
      <point x="887" y="1270" type="line"/>
      <point x="885" y="834" type="line"/>
      <point x="897" y="189" type="line" smooth="yes"/>
      <point x="901" y="-29"/>
      <point x="595" y="-200"/>
      <point x="331" y="-207" type="qcurve" smooth="yes"/>
      <point x="219" y="-210"/>
      <point x="93" y="-206"/>
    </contour>
  </outline>
</glyph>
<glyph name="U" format="2">
  <advance width="2151"/>
  <unicode hex="0055"/>
  <anchor x="1141" y="0" name="bottom"/>
  <anchor x="1388" y="0" name="ogonek"/>
  <anchor x="1141" y="1500" name="top"/>
  <anchor x="2129" y="1500" name="topright"/>
  <outline>
    <contour>
      <point x="72" y="1306" type="line"/>
      <point x="72" y="1500" type="line"/>
      <point x="1046" y="1500" type="line"/>
      <point x="1046" y="1306" type="line"/>
      <point x="829" y="1272" type="line"/>
      <point x="824" y="831" type="line"/>
      <point x="828" y="528" type="line" smooth="yes"/>
      <point x="830" y="342"/>
      <point x="1078" y="179"/>
      <point x="1276" y="179" type="qcurve" smooth="yes"/>
      <point x="1453" y="179"/>
      <point x="1709" y="356"/>
      <point x="1710" y="547" type="qcurve" smooth="yes"/>
      <point x="1712" y="831" type="line"/>
      <point x="1710" y="1272" type="line"/>
      <point x="1482" y="1306" type="line"/>
      <point x="1482" y="1500" type="line"/>
      <point x="2129" y="1500" type="line"/>
      <point x="2129" y="1306" type="line"/>
      <point x="1911" y="1272" type="line"/>
      <point x="1909" y="794" type="line"/>
      <point x="1911" y="493" type="line" smooth="yes"/>
      <point x="1915" y="231"/>
      <point x="1450" y="-39"/>
      <point x="1102" y="-39" type="qcurve" smooth="yes"/>
      <point x="737" y="-39"/>
      <point x="278" y="238"/>
      <point x="280" y="481" type="qcurve" smooth="yes"/>
      <point x="283" y="794" type="line"/>
      <point x="280" y="1272" type="line"/>
    </contour>
  </outline>
</glyph>
<glyph name="bracketleft" format="2">
  <advance width="1023"/>
  <unicode hex="005B"/>
  <outline>
    <contour>
      <point x="163" y="508" type="line"/>
      <point x="151" y="1290" type="line"/>
      <point x="132" y="1310" type="line"/>
      <point x="132" y="1500" type="line"/>
      <point x="941" y="1500" type="line"/>
      <point x="941" y="1309" type="line"/>
      <point x="619" y="1290" type="line"/>
      <point x="607" y="508" type="line"/>
      <point x="619" y="-270" type="line"/>
      <point x="941" y="-289" type="line"/>
      <point x="941" y="-480" type="line"/>
      <point x="132" y="-480" type="line"/>
      <point x="132" y="-290" type="line"/>
      <point x="151" y="-270" type="line"/>
    </contour>
  </outline>
</glyph>
<glyph name="backslash" format="2">
  <advance width="779"/>
  <unicode hex="005C"/>
  <outline>
    <contour>
      <point x="-38" y="1502" type="line"/>
      <point x="125" y="1561" type="line"/>
      <point x="830" y="-106" type="line"/>
      <point x="668" y="-165" type="line"/>
    </contour>
  </outline>
</glyph>
<glyph name="c" format="2">
  <advance width="1467"/>
  <unicode hex="0063"/>
  <anchor x="794" y="0" name="bottom"/>
  <anchor x="771" y="1099" name="top"/>
  <outline>
    <contour>
      <point x="82" y="539" type="qcurve" smooth="yes"/>
      <point x="82" y="791"/>
      <point x="450" y="1128"/>
      <point x="745" y="1128" type="qcurve" smooth="yes"/>
      <point x="863" y="1128"/>
      <point x="1030" y="1083"/>
      <point x="1073" y="1057" type="qcurve"/>
      <point x="1106" y="1148" type="line"/>
      <point x="1356" y="1148" type="line"/>
      <point x="1383" y="620" type="line"/>
      <point x="1168" y="620" type="line"/>
      <point x="1151" y="764" type="line" smooth="yes"/>
      <point x="1125" y="858"/>
      <point x="1028" y="965"/>
      <point x="932" y="965" type="qcurve" smooth="yes"/>
      <point x="790" y="965"/>
      <point x="617" y="767"/>
      <point x="617" y="559" type="qcurve" smooth="yes"/>
      <point x="617" y="363"/>
      <point x="825" y="159"/>
      <point x="997" y="159" type="qcurve" smooth="yes"/>
      <point x="1107" y="159"/>
      <point x="1265" y="224"/>
      <point x="1321" y="269" type="qcurve"/>
      <point x="1395" y="168" type="line"/>
      <point x="1319" y="89"/>
      <point x="1035" y="-27"/>
      <point x="807" y="-27" type="qcurve" smooth="yes"/>
      <point x="503" y="-27"/>
      <point x="82" y="276"/>
    </contour>
  </outline>
</glyph>
<glyph name="f" format="2">
  <advance width="1050"/>
  <unicode hex="0066"/>
  <anchor x="540" y="0" name="bottom"/>
  <anchor x="566" y="1536" name="top"/>
  <outline>
    <contour>
      <point x="38" y="0" type="line"/>
      <point x="38" y="180" type="line"/>
      <point x="257" y="215" type="line"/>
      <point x="258" y="528" type="line"/>
      <point x="256" y="917" type="line"/>
      <point x="81" y="922" type="line"/>
      <point x="81" y="1074" type="line"/>
      <point x="257" y="1092" type="line"/>
      <point x="261" y="1225" type="line" smooth="yes"/>
      <point x="264" y="1390"/>
      <point x="520" y="1543"/>
      <point x="713" y="1543" type="qcurve" smooth="yes"/>
      <point x="786" y="1543"/>
      <point x="931" y="1535"/>
      <point x="1001" y="1521" type="qcurve" smooth="yes"/>
      <point x="1023" y="1516" type="line"/>
      <point x="1006" y="1365" type="line"/>
      <point x="985" y="1369" type="line" smooth="yes"/>
      <point x="971" y="1372"/>
      <point x="940" y="1374"/>
      <point x="919" y="1374" type="qcurve" smooth="yes"/>
      <point x="843" y="1374"/>
      <point x="763" y="1284"/>
      <point x="763" y="1211" type="qcurve" smooth="yes"/>
      <point x="766" y="1093" type="line"/>
      <point x="1004" y="1093" type="line"/>
      <point x="1004" y="923" type="line"/>
      <point x="766" y="923" type="line"/>
      <point x="768" y="529" type="line"/>
      <point x="773" y="215" type="line"/>
      <point x="1015" y="180" type="line"/>
      <point x="1015" y="0" type="line"/>
    </contour>
  </outline>
</glyph>
<glyph name="bar" format="2">
  <advance width="640"/>
  <unicode hex="007C"/>
  <outline>
    <contour>
      <point x="229" y="-540" type="line"/>
      <point x="232" y="-58" type="line"/>
      <point x="238" y="250" type="line"/>
      <point x="236" y="830" type="line"/>
      <point x="229" y="1138" type="line"/>
      <point x="227" y="1480" type="line"/>
      <point x="417" y="1550" type="line"/>
      <point x="412" y="1138" type="line"/>
      <point x="402" y="830" type="line"/>
      <point x="404" y="250" type="line"/>
      <point x="413" y="-58" type="line"/>
      <point x="415" y="-470" type="line"/>
    </contour>
  </outline>
</glyph>
<glyph name="guillemotright" format="2">
  <advance width="1366"/>
  <unicode hex="00BB"/>
  <outline>
    <contour>
      <point x="1336" y="588" type="line"/>
      <point x="1255" y="533"/>
      <point x="770" y="225"/>
      <point x="706" y="193" type="qcurve" smooth="yes"/>
      <point x="621" y="128"/>
      <point x="538" y="256"/>
      <point x="620" y="330" type="qcurve" smooth="yes"/>
      <point x="684" y="392"/>
      <point x="813" y="528"/>
      <point x="864" y="602" type="qcurve"/>
      <point x="811" y="661"/>
      <point x="681" y="803"/>
      <point x="617" y="888" type="qcurve" smooth="yes"/>
      <point x="540" y="944"/>
      <point x="603" y="1079"/>
      <point x="692" y="1034" type="qcurve" smooth="yes"/>
      <point x="758" y="989"/>
      <point x="1262" y="667"/>
      <point x="1336" y="628" type="qcurve"/>
    </contour>
    <contour>
      <point x="792" y="588" type="line"/>
      <point x="711" y="533"/>
      <point x="227" y="225"/>
      <point x="162" y="193" type="qcurve" smooth="yes"/>
      <point x="77" y="128"/>
      <point x="-5" y="256"/>
      <point x="77" y="330" type="qcurve" smooth="yes"/>
      <point x="140" y="392"/>
      <point x="269" y="528"/>
      <point x="321" y="602" type="qcurve"/>
      <point x="267" y="661"/>
      <point x="137" y="803"/>
      <point x="73" y="888" type="qcurve" smooth="yes"/>
      <point x="-4" y="944"/>
      <point x="59" y="1079"/>
      <point x="149" y="1034" type="qcurve" smooth="yes"/>
      <point x="214" y="989"/>
      <point x="718" y="667"/>
      <point x="792" y="628" type="qcurve"/>
    </contour>
  </outline>
</glyph>
<glyph name="idotless" format="2">
  <advance width="1023"/>
  <unicode hex="0131"/>
  <anchor x="519" y="0" name="bottom"/>
  <anchor x="519" y="1099" name="top"/>
  <anchor x="788" y="0" name="ogonek"/>
  <outline>
    <contour>
      <point x="45" y="0" type="line"/>
      <point x="45" y="180" type="line"/>
      <point x="263" y="215" type="line"/>
      <point x="265" y="533" type="line"/>
      <point x="260" y="841" type="line"/>
      <point x="40" y="871" type="line"/>
      <point x="40" y="1065" type="line"/>
      <point x="716" y="1105" type="line"/>
      <point x="763" y="1105" type="line"/>
      <point x="786" y="1066" type="line"/>
      <point x="779" y="533" type="line"/>
      <point x="781" y="215" type="line"/>
      <point x="999" y="180" type="line"/>
      <point x="999" y="0" type="line"/>
    </contour>
  </outline>
</glyph>
<glyph name="Delta" format="2">
  <advance width="1572"/>
  <unicode hex="0394"/>
  <outline>
    <contour>
      <point x="137" y="0" type="line"/>
      <point x="137" y="99" type="line"/>
      <point x="328" y="521" type="line"/>
      <point x="641" y="1508" type="line"/>
      <point x="931" y="1508" type="line"/>
      <point x="1252" y="542" type="line"/>
      <point x="1444" y="100" type="line"/>
      <point x="1444" y="0" type="line"/>
    </contour>
    <contour>
      <point x="307" y="108" type="line"/>
      <point x="769" y="93" type="line"/>
      <point x="1221" y="108" type="line"/>
      <point x="1230" y="114" type="line"/>
      <point x="1107" y="327" type="line"/>
      <point x="859" y="887" type="line"/>
      <point x="775" y="1252" type="line"/>
      <point x="764" y="1252" type="line"/>
      <point x="697" y="887" type="line"/>
      <point x="341" y="189" type="line"/>
      <point x="298" y="114" type="line"/>
    </contour>
  </outline>
</glyph>
<glyph name="Xi" format="2">
  <advance width="1455"/>
  <unicode hex="039E"/>
  <outline>
    <contour>
      <point x="50" y="0" type="line"/>
      <point x="-1" y="452" type="line"/>
      <point x="267" y="452" type="line"/>
      <point x="351" y="125" type="line"/>
      <point x="727" y="115" type="line"/>
      <point x="1103" y="125" type="line"/>
      <point x="1188" y="452" type="line"/>
      <point x="1456" y="452" type="line"/>
      <point x="1405" y="0" type="line"/>
    </contour>
    <contour>
      <point x="246" y="484" type="line"/>
      <point x="246" y="988" type="line"/>
      <point x="492" y="988" type="line"/>
      <point x="527" y="801" type="line"/>
      <point x="727" y="789" type="line"/>
      <point x="928" y="801" type="line"/>
      <point x="963" y="988" type="line"/>
      <point x="1209" y="988" type="line"/>
      <point x="1209" y="484" type="line"/>
      <point x="963" y="484" type="line"/>
      <point x="928" y="671" type="line"/>
      <point x="727" y="683" type="line"/>
      <point x="527" y="671" type="line"/>
      <point x="492" y="484" type="line"/>
    </contour>
    <contour>
      <point x="45" y="1024" type="line"/>
      <point x="45" y="1500" type="line"/>
      <point x="1410" y="1500" type="line"/>
      <point x="1410" y="1024" type="line"/>
      <point x="1142" y="1024" type="line"/>
      <point x="1110" y="1365" type="line"/>
      <point x="727" y="1375" type="line"/>
      <point x="345" y="1365" type="line"/>
      <point x="313" y="1024" type="line"/>
    </contour>
  </outline>
</glyph>
<glyph name="eta" format="2">
  <advance width="1228"/>
  <unicode hex="03B7"/>
  <anchor x="446" y="1000" name="GRKtop"/>
  <outline>
    <contour>
      <point x="906" y="-480" type="line"/>
      <point x="881" y="-444" type="line"/>
      <point x="891" y="338" type="line"/>
      <point x="891" y="604" type="line" smooth="yes"/>
      <point x="891" y="741"/>
      <point x="770" y="877"/>
      <point x="661" y="877" type="qcurve"/>
      <point x="557" y="877"/>
      <point x="394" y="775"/>
      <point x="353" y="705" type="qcurve"/>
      <point x="353" y="551" type="line"/>
      <point x="359" y="21" type="line"/>
      <point x="202" y="0" type="line"/>
      <point x="177" y="36" type="line"/>
      <point x="190" y="723" type="line"/>
      <point x="188" y="803"/>
      <point x="170" y="866"/>
      <point x="118" y="877" type="qcurve" smooth="yes"/>
      <point x="55" y="890" type="line"/>
      <point x="55" y="970" type="line"/>
      <point x="230" y="1008" type="line"/>
      <point x="288" y="1008"/>
      <point x="353" y="909"/>
      <point x="353" y="832" type="qcurve"/>
      <point x="354" y="832" type="line"/>
      <point x="395" y="910"/>
      <point x="562" y="1021"/>
      <point x="685" y="1021" type="qcurve"/>
      <point x="853" y="1021"/>
      <point x="1055" y="825"/>
      <point x="1055" y="604" type="qcurve" smooth="yes"/>
      <point x="1055" y="340" type="line"/>
      <point x="1063" y="-459" type="line"/>
    </contour>
  </outline>
</glyph>
<glyph name="chi" format="2">
  <advance width="1073"/>
  <unicode hex="03C7"/>
  <outline>
    <contour>
      <point x="67" y="-480" type="line"/>
      <point x="42" y="-444" type="line"/>
      <point x="368" y="78" type="line"/>
      <point x="483" y="282" type="line"/>
      <point x="211" y="804" type="line" smooth="yes"/>
      <point x="191" y="844"/>
      <point x="148" y="868"/>
      <point x="97" y="877" type="qcurve" smooth="yes"/>
      <point x="20" y="890" type="line"/>
      <point x="20" y="970" type="line"/>
      <point x="197" y="1008" type="line"/>
      <point x="251" y="1008"/>
      <point x="321" y="961"/>
      <point x="344" y="912" type="qcurve" smooth="yes"/>
      <point x="509" y="551" type="line"/>
      <point x="571" y="424" type="line"/>
      <point x="581" y="424" type="line"/>
      <point x="650" y="554" type="line"/>
      <point x="851" y="979" type="line"/>
      <point x="1012" y="1000" type="line"/>
      <point x="1037" y="964" type="line"/>
      <point x="760" y="519" type="line"/>
      <point x="699" y="170" type="line"/>
      <point x="936" y="-284" type="line"/>
      <point x="971" y="-345"/>
      <point x="1011" y="-371"/>
      <point x="1079" y="-371" type="qcurve"/>
      <point x="1123" y="-371" type="line"/>
      <point x="1123" y="-451" type="line"/>
      <point x="947" y="-488" type="line"/>
      <point x="891" y="-488"/>
      <point x="825" y="-443"/>
      <point x="806" y="-403" type="qcurve" smooth="yes"/>
      <point x="584" y="67" type="line"/>
      <point x="543" y="152" type="line"/>
      <point x="533" y="152" type="line"/>
      <point x="476" y="41" type="line"/>
      <point x="228" y="-459" type="line"/>
    </contour>
  </outline>
</glyph>
<glyph name="psi" format="2">
  <advance width="1419"/>
  <unicode hex="03C8"/>
  <outline>
    <contour>
      <point x="685" y="-480" type="line"/>
      <point x="660" y="-444" type="line"/>
      <point x="669" y="30" type="line"/>
      <point x="676" y="30" type="line"/>
      <point x="683" y="1519" type="line"/>
      <point x="794" y="1534" type="line"/>
      <point x="819" y="1498" type="line"/>
      <point x="827" y="30" type="line"/>
      <point x="834" y="30" type="line"/>
      <point x="842" y="-459" type="line"/>
    </contour>
    <contour>
      <point x="747" y="-21" type="qcurve"/>
      <point x="459" y="-21"/>
      <point x="190" y="189"/>
      <point x="187" y="389" type="qcurve"/>
      <point x="187" y="760" type="line" smooth="yes"/>
      <point x="187" y="828"/>
      <point x="157" y="869"/>
      <point x="114" y="878" type="qcurve" smooth="yes"/>
      <point x="55" y="890" type="line"/>
      <point x="55" y="970" type="line"/>
      <point x="231" y="1008" type="line"/>
      <point x="288" y="1008"/>
      <point x="353" y="908"/>
      <point x="353" y="831" type="qcurve" smooth="yes"/>
      <point x="353" y="387" type="line"/>
      <point x="351" y="247"/>
      <point x="541" y="113"/>
      <point x="747" y="113" type="qcurve"/>
      <point x="961" y="113"/>
      <point x="1169" y="289"/>
      <point x="1169" y="520" type="qcurve" smooth="yes"/>
      <point x="1169" y="646"/>
      <point x="1093" y="843"/>
      <point x="986" y="964" type="qcurve"/>
      <point x="1109" y="1029" type="line"/>
      <point x="1242" y="918"/>
      <point x="1350" y="698"/>
      <point x="1350" y="520" type="qcurve" smooth="yes"/>
      <point x="1350" y="280"/>
      <point x="1042" y="-21"/>
    </contour>
  </outline>
</glyph>
<glyph name="Ka" format="2">
  <advance width="2448"/>
  <unicode hex="041A"/>
  <anchor x="1221" y="0" name="bottom"/>
  <anchor x="1191" y="1500" name="top"/>
  <outline>
    <contour>
      <point x="90" y="0" type="line"/>
      <point x="90" y="180" type="line"/>
      <point x="308" y="215" type="line"/>
      <point x="310" y="754" type="line"/>
      <point x="308" y="1272" type="line"/>
      <point x="90" y="1306" type="line"/>
      <point x="90" y="1500" type="line"/>
      <point x="1065" y="1500" type="line"/>
      <point x="1065" y="1306" type="line"/>
      <point x="857" y="1272" type="line"/>
      <point x="855" y="754" type="line"/>
      <point x="857" y="215" type="line"/>
      <point x="1075" y="180" type="line"/>
      <point x="1075" y="0" type="line"/>
    </contour>
    <contour>
      <point x="775" y="685" type="line"/>
      <point x="775" y="897" type="line"/>
      <point x="1325" y="893" type="line"/>
      <point x="1646" y="1262" type="line"/>
      <point x="1548" y="1306" type="line"/>
      <point x="1548" y="1500" type="line"/>
      <point x="2144" y="1500" type="line"/>
      <point x="2144" y="1306" type="line"/>
      <point x="1892" y="1258" type="line"/>
      <point x="1432" y="735" type="line"/>
      <point x="1417" y="685" type="line"/>
    </contour>
    <contour>
      <point x="1010" y="819" type="line"/>
      <point x="1712" y="834" type="line"/>
      <point x="2240" y="215" type="line"/>
      <point x="2469" y="180" type="line"/>
      <point x="2469" y="0" type="line"/>
      <point x="1413" y="0" type="line"/>
      <point x="1413" y="180" type="line"/>
      <point x="1528" y="215" type="line"/>
    </contour>
  </outline>
</glyph>
<glyph name="El" format="2">
  <advance width="2153"/>
  <unicode hex="041B"/>
  <outline>
    <contour>
      <point x="428" y="842" type="qcurve" smooth="yes"/>
      <point x="465" y="1272" type="line"/>
      <point x="254" y="1306" type="line"/>
      <point x="254" y="1500" type="line"/>
      <point x="2063" y="1500" type="line"/>
      <point x="2063" y="1306" type="line"/>
      <point x="1845" y="1272" type="line"/>
      <point x="1843" y="754" type="line"/>
      <point x="1845" y="215" type="line"/>
      <point x="2063" y="180" type="line"/>
      <point x="2063" y="0" type="line"/>
      <point x="1088" y="0" type="line"/>
      <point x="1088" y="180" type="line"/>
      <point x="1296" y="215" type="line"/>
      <point x="1298" y="754" type="line"/>
      <point x="1296" y="1272" type="line"/>
      <point x="1256" y="1300" type="line"/>
      <point x="701" y="1300" type="line"/>
      <point x="661" y="1272" type="line"/>
      <point x="616" y="754" type="line" smooth="yes"/>
      <point x="578" y="325"/>
      <point x="402" y="-17"/>
      <point x="168" y="-17" type="qcurve" smooth="yes"/>
      <point x="141" y="-17"/>
      <point x="101" y="-10"/>
      <point x="68" y="0" type="qcurve"/>
      <point x="68" y="349" type="line"/>
      <point x="92" y="342"/>
      <point x="132" y="338"/>
      <point x="153" y="338" type="qcurve" smooth="yes"/>
      <point x="298" y="338"/>
      <point x="407" y="599"/>
    </contour>
  </outline>
</glyph>
<glyph name="quoteleft" format="2">
  <advance width="844"/>
  <unicode hex="2018"/>
  <outline>
    <contour>
      <point x="615" y="1485" type="line"/>
      <point x="579" y="1457"/>
      <point x="491" y="1372"/>
      <point x="459" y="1287" type="qcurve"/>
      <point x="577" y="1278"/>
      <point x="700" y="1154"/>
      <point x="700" y="1052" type="qcurve" smooth="yes"/>
      <point x="700" y="949"/>
      <point x="556" y="798"/>
      <point x="444" y="798" type="qcurve" smooth="yes"/>
      <point x="339" y="798"/>
      <point x="186" y="937"/>
      <point x="186" y="1074" type="qcurve" smooth="yes"/>
      <point x="186" y="1274"/>
      <point x="458" y="1508"/>
      <point x="554" y="1555" type="qcurve"/>
    </contour>
  </outline>
</glyph>
<glyph name="quoteright" format="2">
  <advance width="844"/>
  <unicode hex="2019"/>
  <outline>
    <contour>
      <point x="229" y="859" type="line"/>
      <point x="266" y="887"/>
      <point x="353" y="972"/>
      <point x="385" y="1057" type="qcurve"/>
      <point x="267" y="1066"/>
      <point x="144" y="1190"/>
      <point x="144" y="1291" type="qcurve" smooth="yes"/>
      <point x="144" y="1395"/>
      <point x="288" y="1546"/>
      <point x="400" y="1546" type="qcurve" smooth="yes"/>
      <point x="505" y="1546"/>
      <point x="658" y="1407"/>
      <point x="658" y="1270" type="qcurve" smooth="yes"/>
      <point x="658" y="1070"/>
      <point x="386" y="836"/>
      <point x="291" y="789" type="qcurve"/>
    </contour>
  </outline>
</glyph>
<glyph name="dagger" format="2">
  <advance width="1185"/>
  <unicode hex="2020"/>
  <outline>
    <contour>
      <point x="493" y="-540" type="line"/>
      <point x="233" y="-58" type="line"/>
      <point x="366" y="726" type="line"/>
      <point x="364" y="989" type="line"/>
      <point x="323" y="1438" type="line"/>
      <point x="373" y="1503" type="line"/>
      <point x="617" y="1506" type="line"/>
      <point x="663" y="1438" type="line"/>
      <point x="631" y="989" type="line"/>
      <point x="633" y="726" type="line"/>
      <point x="764" y="-58" type="line"/>
      <point x="513" y="-540" type="line"/>
    </contour>
    <contour>
      <point x="90" y="830" type="line"/>
      <point x="90" y="1019" type="line"/>
      <point x="499" y="1011" type="line"/>
      <point x="1095" y="1019" type="line"/>
      <point x="1095" y="830" type="line"/>
      <point x="499" y="834" type="line"/>
    </contour>
  </outline>
</glyph>
<glyph name="guilsinglright" format="2">
  <advance width="875"/>
  <unicode hex="203A"/>
  <outline>
    <contour>
      <point x="834" y="588" type="line"/>
      <point x="753" y="541"/>
      <point x="269" y="233"/>
      <point x="204" y="192" type="qcurve" smooth="yes"/>
      <point x="119" y="136"/>
      <point x="37" y="264"/>
      <point x="119" y="329" type="qcurve" smooth="yes"/>
      <point x="183" y="400"/>
      <point x="311" y="536"/>
      <point x="363" y="602" type="qcurve"/>
      <point x="310" y="669"/>
      <point x="177" y="815"/>
      <point x="113" y="889" type="qcurve" smooth="yes"/>
      <point x="33" y="957"/>
      <point x="101" y="1087"/>
      <point x="191" y="1033" type="qcurve" smooth="yes"/>
      <point x="256" y="997"/>
      <point x="760" y="675"/>
      <point x="834" y="628" type="qcurve"/>
    </contour>
  </outline>
</glyph>
<glyph name="peseta" format="2">
  <advance width="2322"/>
  <unicode hex="20A7"/>
  <outline>
    <contour>
      <point x="100" y="0" type="line"/>
      <point x="100" y="100" type="line"/>
      <point x="308" y="137" type="line"/>
      <point x="310" y="754" type="line"/>
      <point x="308" y="1352" type="line"/>
      <point x="100" y="1386" type="line"/>
      <point x="100" y="1500" type="line"/>
      <point x="607" y="1500" type="line" smooth="yes"/>
      <point x="815" y="1500"/>
      <point x="1052" y="1277"/>
      <point x="1052" y="1127" type="qcurve" smooth="yes"/>
      <point x="1052" y="908"/>
      <point x="822" y="660"/>
      <point x="613" y="660" type="qcurve" smooth="yes"/>
      <point x="570" y="660"/>
      <point x="436" y="677"/>
      <point x="406" y="687" type="qcurve"/>
      <point x="415" y="793" type="line"/>
      <point x="447" y="782"/>
      <point x="538" y="772"/>
      <point x="573" y="772" type="qcurve" smooth="yes"/>
      <point x="715" y="772"/>
      <point x="864" y="946"/>
      <point x="864" y="1099" type="qcurve" smooth="yes"/>
      <point x="864" y="1240"/>
      <point x="703" y="1382"/>
      <point x="570" y="1382" type="qcurve" smooth="yes"/>
      <point x="517" y="1382" type="line"/>
      <point x="488" y="1362" type="line"/>
      <point x="486" y="820" type="line"/>
      <point x="488" y="132" type="line"/>
      <point x="696" y="100" type="line"/>
      <point x="696" y="0" type="line"/>
    </contour>
    <contour>
      <point x="1004" y="832" type="line"/>
      <point x="1004" y="906" type="line"/>
      <point x="1166" y="925"/>
      <point x="1259" y="1135"/>
      <point x="1265" y="1236" type="qcurve"/>
      <point x="1312" y="1236" type="line"/>
      <point x="1367" y="1188" type="line"/>
      <point x="1348" y="924" type="line"/>
      <point x="1558" y="924" type="line"/>
      <point x="1558" y="822" type="line"/>
      <point x="1341" y="822" type="line"/>
      <point x="1335" y="613" type="line"/>
      <point x="1335" y="216" type="line" smooth="yes"/>
      <point x="1335" y="161"/>
      <point x="1383" y="109"/>
      <point x="1443" y="109" type="qcurve" smooth="yes"/>
      <point x="1535" y="109" type="line"/>
      <point x="1535" y="29" type="line"/>
      <point x="1302" y="-8" type="line"/>
      <point x="1225" y="-8"/>
      <point x="1167" y="73"/>
      <point x="1167" y="163" type="qcurve"/>
      <point x="1169" y="527" type="line"/>
      <point x="1167" y="780" type="line"/>
    </contour>
    <contour>
      <point x="1529" y="26" type="line"/>
      <point x="1527" y="333" type="line"/>
      <point x="1628" y="333" type="line"/>
      <point x="1639" y="275" type="line" smooth="yes"/>
      <point x="1654" y="190"/>
      <point x="1791" y="86"/>
      <point x="1900" y="86" type="qcurve" smooth="yes"/>
      <point x="1995" y="86"/>
      <point x="2113" y="174"/>
      <point x="2113" y="255" type="qcurve" smooth="yes"/>
      <point x="2113" y="338"/>
      <point x="1992" y="413"/>
      <point x="1836" y="460" type="qcurve" smooth="yes"/>
      <point x="1681" y="508"/>
      <point x="1562" y="638"/>
      <point x="1562" y="746" type="qcurve" smooth="yes"/>
      <point x="1562" y="854"/>
      <point x="1722" y="1014"/>
      <point x="1867" y="1014" type="qcurve" smooth="yes"/>
      <point x="1940" y="1014"/>
      <point x="2043" y="975"/>
      <point x="2079" y="952" type="qcurve"/>
      <point x="2092" y="982" type="line"/>
      <point x="2178" y="982" type="line"/>
      <point x="2178" y="692" type="line"/>
      <point x="2078" y="692" type="line"/>
      <point x="2058" y="803" type="line" smooth="yes"/>
      <point x="2050" y="846"/>
      <point x="1949" y="902"/>
      <point x="1871" y="902" type="qcurve" smooth="yes"/>
      <point x="1785" y="902"/>
      <point x="1706" y="834"/>
      <point x="1706" y="776" type="qcurve" smooth="yes"/>
      <point x="1706" y="715"/>
      <point x="1789" y="654"/>
      <point x="1938" y="611" type="qcurve" smooth="yes"/>
      <point x="2084" y="569"/>
      <point x="2259" y="424"/>
      <point x="2259" y="282" type="qcurve" smooth="yes"/>
      <point x="2259" y="157"/>
      <point x="2075" y="-23"/>
      <point x="1922" y="-23" type="qcurve" smooth="yes"/>
      <point x="1831" y="-23"/>
      <point x="1701" y="28"/>
      <point x="1650" y="71" type="qcurve"/>
      <point x="1621" y="16" type="line"/>
    </contour>
  </outline>
</glyph>
<glyph name="lessequal" format="2">
  <advance width="1158"/>
  <unicode hex="2264"/>
  <outline>
    <contour>
      <point x="158" y="46" type="line"/>
      <point x="158" y="198" type="line"/>
      <point x="1049" y="198" type="line"/>
      <point x="1049" y="46" type="line"/>
    </contour>
    <contour>
      <point x="189" y="699" type="qcurve"/>
      <point x="189" y="700"/>
      <point x="746" y="1048"/>
      <point x="815" y="1093" type="qcurve" smooth="yes"/>
      <point x="884" y="1137"/>
      <point x="960" y="1041"/>
      <point x="899" y="992" type="qcurve" smooth="yes"/>
      <point x="765" y="890"/>
      <point x="493" y="715"/>
      <point x="440" y="697" type="qcurve"/>
      <point x="488" y="679"/>
      <point x="773" y="496"/>
      <point x="898" y="396" type="qcurve"/>
      <point x="960" y="347"/>
      <point x="885" y="252"/>
      <point x="815" y="295" type="qcurve" smooth="yes"/>
      <point x="745" y="339"/>
      <point x="189" y="698"/>
    </contour>
  </outline>
</glyph>
<glyph name="fl" format="2">
  <advance width="2054"/>
  <unicode hex="FB02"/>
  <outline>
    <contour>
      <point x="88" y="0" type="line"/>
      <point x="88" y="180" type="line"/>
      <point x="256" y="215" type="line"/>
      <point x="258" y="527" type="line"/>
      <point x="256" y="909" type="line"/>
      <point x="86" y="921" type="line"/>
      <point x="75" y="1074" type="line"/>
      <point x="257" y="1092" type="line"/>
      <point x="264" y="1323" type="line" smooth="yes"/>
      <point x="267" y="1425"/>
      <point x="509" y="1542"/>
      <point x="692" y="1542" type="qcurve" smooth="yes"/>
      <point x="753" y="1542"/>
      <point x="889" y="1535"/>
      <point x="954" y="1526" type="qcurve" smooth="yes"/>
      <point x="1078" y="1512" type="line"/>
      <point x="1752" y="1539" type="line"/>
      <point x="1789" y="1537" type="line"/>
      <point x="1812" y="1506" type="line"/>
      <point x="1810" y="533" type="line"/>
      <point x="1812" y="215" type="line"/>
      <point x="1970" y="180" type="line"/>
      <point x="1970" y="0" type="line"/>
      <point x="1149" y="0" type="line"/>
      <point x="1149" y="180" type="line"/>
      <point x="1294" y="215" type="line"/>
      <point x="1296" y="533" type="line"/>
      <point x="1294" y="1376" type="line"/>
      <point x="1000" y="1423" type="line" smooth="yes"/>
      <point x="975" y="1411"/>
      <point x="943" y="1392"/>
      <point x="928" y="1373" type="qcurve" smooth="yes"/>
      <point x="840" y="1374"/>
      <point x="763" y="1313"/>
      <point x="763" y="1245" type="qcurve" smooth="yes"/>
      <point x="765" y="1093" type="line"/>
      <point x="1068" y="1093" type="line"/>
      <point x="1068" y="932" type="line"/>
      <point x="766" y="921" type="line"/>
      <point x="767" y="529" type="line"/>
      <point x="778" y="215" type="line"/>
      <point x="950" y="180" type="line"/>
      <point x="950" y="0" type="line"/>
    </contour>
  </outline>
</glyph>
<glyph name="acutecomb.case" format="2">
  <advance width="220"/>
  <anchor x="99" y="1500" name="_top"/>
  <anchor x="99" y="2086" name="top"/>
  <outline>
    <contour>
      <point x="472" y="1939" type="qcurve" smooth="yes"/>
      <point x="470" y="1863"/>
      <point x="367" y="1788"/>
      <point x="289" y="1766" type="qcurve" smooth="yes"/>
      <point x="-5" y="1674" type="line"/>
      <point x="-93" y="1773" type="line"/>
      <point x="53" y="1894" type="line" smooth="yes"/>
      <point x="104" y="1958"/>
      <point x="245" y="2090"/>
      <point x="313" y="2088" type="qcurve" smooth="yes"/>
      <point x="387" y="2086"/>
      <point x="474" y="1996"/>
    </contour>
  </outline>
</glyph>
<glyph name="en.bgr" format="2">
  <advance width="2057"/>
  <outline>
    <contour>
      <point x="679" y="654" type="line"/>
      <point x="1027" y="651" type="line"/>
      <point x="1378" y="654" type="line"/>
      <point x="1378" y="489" type="line"/>
      <point x="1027" y="491" type="line"/>
      <point x="679" y="489" type="line"/>
    </contour>
    <contour>
      <point x="48" y="0" type="line"/>
      <point x="48" y="180" type="line"/>
      <point x="246" y="215" type="line"/>
      <point x="248" y="550" type="line"/>
      <point x="246" y="841" type="line"/>
      <point x="48" y="871" type="line"/>
      <point x="48" y="1065" type="line"/>
      <point x="704" y="1099" type="line"/>
      <point x="739" y="1099" type="line"/>
      <point x="764" y="1063" type="line"/>
      <point x="762" y="550" type="line"/>
      <point x="764" y="215" type="line"/>
      <point x="952" y="180" type="line"/>
      <point x="952" y="0" type="line"/>
    </contour>
    <contour>
      <point x="1105" y="0" type="line"/>
      <point x="1105" y="180" type="line"/>
      <point x="1293" y="215" type="line"/>
      <point x="1295" y="550" type="line"/>
      <point x="1293" y="841" type="line"/>
      <point x="1105" y="871" type="line"/>
      <point x="1105" y="1065" type="line"/>
      <point x="1751" y="1099" type="line"/>
      <point x="1786" y="1099" type="line"/>
      <point x="1811" y="1063" type="line"/>
      <point x="1809" y="550" type="line"/>
      <point x="1811" y="215" type="line"/>
      <point x="2009" y="180" type="line"/>
      <point x="2009" y="0" type="line"/>
    </contour>
  </outline>
</glyph>
<glyph name="five.lf" format="2">
  <advance width="1052"/>
  <outline>
    <contour>
      <point x="20" y="143" type="qcurve"/>
      <point x="89" y="250" type="line"/>
      <point x="146" y="201"/>
      <point x="328" y="111"/>
      <point x="462" y="111" type="qcurve" smooth="yes"/>
      <point x="597" y="111"/>
      <point x="786" y="272"/>
      <point x="786" y="444" type="qcurve" smooth="yes"/>
      <point x="786" y="613"/>
      <point x="502" y="796"/>
      <point x="287" y="796" type="qcurve" smooth="yes"/>
      <point x="175" y="796" type="line"/>
      <point x="132" y="850" type="line"/>
      <point x="200" y="1467" type="line"/>
      <point x="227" y="1500" type="line"/>
      <point x="886" y="1500" type="line"/>
      <point x="876" y="1324" type="line"/>
      <point x="302" y="1324" type="line"/>
      <point x="292" y="1313" type="line"/>
      <point x="240" y="905" type="line"/>
      <point x="382" y="947" type="line"/>
      <point x="639" y="947"/>
      <point x="974" y="721"/>
      <point x="974" y="502" type="qcurve" smooth="yes"/>
      <point x="974" y="261"/>
      <point x="682" y="-22"/>
      <point x="483" y="-22" type="qcurve" smooth="yes"/>
      <point x="330" y="-22"/>
      <point x="89" y="73"/>
    </contour>
  </outline>
</glyph>
<glyph name="five.tab" format="2">
  <advance width="1036"/>
  <outline>
    <contour>
      <point x="56" y="143" type="qcurve"/>
      <point x="120" y="250" type="line"/>
      <point x="174" y="201"/>
      <point x="344" y="107"/>
      <point x="469" y="111" type="qcurve" smooth="yes"/>
      <point x="596" y="115"/>
      <point x="764" y="272"/>
      <point x="764" y="444" type="qcurve" smooth="yes"/>
      <point x="764" y="613"/>
      <point x="522" y="796"/>
      <point x="306" y="796" type="qcurve" smooth="yes"/>
      <point x="201" y="796" type="line"/>
      <point x="161" y="850" type="line"/>
      <point x="224" y="1467" type="line"/>
      <point x="250" y="1500" type="line"/>
      <point x="866" y="1500" type="line"/>
      <point x="856" y="1324" type="line"/>
      <point x="325" y="1324" type="line"/>
      <point x="315" y="1313" type="line"/>
      <point x="267" y="905" type="line"/>
      <point x="404" y="937" type="line"/>
      <point x="645" y="937"/>
      <point x="948" y="711"/>
      <point x="948" y="492" type="qcurve" smooth="yes"/>
      <point x="948" y="251"/>
      <point x="675" y="-22"/>
      <point x="489" y="-22" type="qcurve" smooth="yes"/>
      <point x="346" y="-22"/>
      <point x="120" y="73"/>
    </contour>
  </outline>
</glyph>
<glyph name="horncomb.case" format="2">
  <advance width="220"/>
  <anchor x="-94" y="1500" name="_topright"/>
  <anchor x="-93" y="1790" name="topright"/>
  <outline>
    <contour>
      <point x="-94" y="1500" type="line"/>
      <point x="-60" y="1500"/>
      <point x="-36" y="1500"/>
      <point x="4" y="1500" type="qcurve" smooth="yes"/>
      <point x="61" y="1500"/>
      <point x="149" y="1546"/>
      <point x="149" y="1615" type="qcurve" smooth="yes"/>
      <point x="149" y="1645"/>
      <point x="137" y="1751"/>
      <point x="132" y="1790" type="qcurve"/>
      <point x="262" y="1790" type="line"/>
      <point x="281" y="1751"/>
      <point x="320" y="1613"/>
      <point x="320" y="1544" type="qcurve" smooth="yes"/>
      <point x="320" y="1451"/>
      <point x="170" y="1364"/>
      <point x="76" y="1364" type="qcurve" smooth="yes"/>
      <point x="36" y="1364"/>
      <point x="-64" y="1369"/>
      <point x="-94" y="1375" type="qcurve"/>
    </contour>
  </outline>
</glyph>
<glyph name="jdotless" format="2">
  <advance width="940"/>
  <anchor x="296" y="-436" name="bottom"/>
  <anchor x="478" y="1099" name="top"/>
  <outline>
    <contour>
      <point x="-18" y="-479" type="qcurve"/>
      <point x="-18" y="-283" type="line"/>
      <point x="124" y="-280"/>
      <point x="239" y="-203"/>
      <point x="239" y="-88" type="qcurve" smooth="yes"/>
      <point x="237" y="527" type="line"/>
      <point x="233" y="841" type="line"/>
      <point x="13" y="871" type="line"/>
      <point x="13" y="1065" type="line"/>
      <point x="689" y="1105" type="line"/>
      <point x="736" y="1105" type="line"/>
      <point x="759" y="1066" type="line"/>
      <point x="753" y="527" type="line"/>
      <point x="755" y="-122" type="line" smooth="yes"/>
      <point x="756" y="-301"/>
      <point x="395" y="-489"/>
    </contour>
  </outline>
</glyph>
<glyph name="macronbelowcomb.case" format="2">
  <advance width="220"/>
  <anchor x="110" y="0" name="_bottom"/>
  <anchor x="110" y="-343" name="bottom"/>
  <outline>
    <contour>
      <point x="-186" y="-343" type="line"/>
      <point x="-186" y="-206" type="line"/>
      <point x="406" y="-206" type="line"/>
      <point x="406" y="-343" type="line"/>
    </contour>
  </outline>
</glyph>
<glyph name="macroncomb.case" format="2">
  <advance width="220"/>
  <anchor x="110" y="1500" name="_top"/>
  <anchor x="110" y="1774" name="top"/>
  <outline>
    <contour>
      <point x="-186" y="1640" type="line"/>
      <point x="-186" y="1774" type="line"/>
      <point x="406" y="1774" type="line"/>
      <point x="406" y="1640" type="line"/>
    </contour>
  </outline>
</glyph>
<glyph name="two.lc" format="2">
  <advance width="1002"/>
  <outline>
    <contour>
      <point x="70" y="0" type="line"/>
      <point x="70" y="90" type="line"/>
      <point x="94" y="172"/>
      <point x="253" y="362"/>
      <point x="406" y="467" type="qcurve" smooth="yes"/>
      <point x="563" y="576"/>
      <point x="690" y="726"/>
      <point x="690" y="818" type="qcurve" smooth="yes"/>
      <point x="690" y="904"/>
      <point x="579" y="989"/>
      <point x="483" y="989" type="qcurve" smooth="yes"/>
      <point x="375" y="989"/>
      <point x="211" y="914"/>
      <point x="139" y="844" type="qcurve"/>
      <point x="71" y="939" type="line"/>
      <point x="136" y="1009"/>
      <point x="355" y="1115"/>
      <point x="520" y="1115" type="qcurve" smooth="yes"/>
      <point x="679" y="1115"/>
      <point x="893" y="971"/>
      <point x="893" y="833" type="qcurve" smooth="yes"/>
      <point x="893" y="687"/>
      <point x="685" y="487"/>
      <point x="530" y="403" type="qcurve" smooth="yes"/>
      <point x="409" y="337"/>
      <point x="264" y="215"/>
      <point x="239" y="160" type="qcurve"/>
      <point x="248" y="152" type="line"/>
      <point x="912" y="152" type="line"/>
      <point x="912" y="0" type="line"/>
    </contour>
  </outline>
</glyph>
